<mxfile host="Electron" modified="2024-01-06T16:47:27.441Z" agent="Mozilla/5.0 (X11; Linux x86_64) AppleWebKit/537.36 (KHTML, like Gecko) draw.io/22.1.16 Chrome/120.0.6099.109 Electron/28.1.0 Safari/537.36" etag="w7ENgsyp-vNWoB2s1AeB" version="22.1.16" type="device">
  <diagram name="Page-1" id="6GWZ8GB9ke-ZuX94Tfkd">
    <mxGraphModel dx="1616" dy="915" grid="1" gridSize="10" guides="1" tooltips="1" connect="1" arrows="1" fold="1" page="1" pageScale="1" pageWidth="827" pageHeight="1169" math="0" shadow="0">
      <root>
        <mxCell id="0" />
        <mxCell id="1" parent="0" />
        <mxCell id="YV2pxjx_i_R8zEDFhrPz-8" style="rounded=0;orthogonalLoop=1;jettySize=auto;html=1;exitX=0.5;exitY=1;exitDx=0;exitDy=0;entryX=0.5;entryY=0;entryDx=0;entryDy=0;endArrow=none;endFill=0;startArrow=classic;startFill=1;dashed=1;dashPattern=8 8;" parent="1" source="YV2pxjx_i_R8zEDFhrPz-1" target="YV2pxjx_i_R8zEDFhrPz-2" edge="1">
          <mxGeometry relative="1" as="geometry" />
        </mxCell>
        <mxCell id="YV2pxjx_i_R8zEDFhrPz-1" value="Scheduler" style="rounded=0;whiteSpace=wrap;html=1;" parent="1" vertex="1">
          <mxGeometry x="466" y="38.75" width="120" height="60" as="geometry" />
        </mxCell>
        <mxCell id="YV2pxjx_i_R8zEDFhrPz-43" style="edgeStyle=orthogonalEdgeStyle;rounded=0;orthogonalLoop=1;jettySize=auto;html=1;entryX=1;entryY=0.5;entryDx=0;entryDy=0;curved=1;exitX=0.25;exitY=1;exitDx=0;exitDy=0;" parent="1" source="YV2pxjx_i_R8zEDFhrPz-2" target="YV2pxjx_i_R8zEDFhrPz-12" edge="1">
          <mxGeometry relative="1" as="geometry" />
        </mxCell>
        <mxCell id="YV2pxjx_i_R8zEDFhrPz-54" value="Packet received&lt;br&gt;if request" style="edgeLabel;html=1;align=center;verticalAlign=middle;resizable=0;points=[];" parent="YV2pxjx_i_R8zEDFhrPz-43" vertex="1" connectable="0">
          <mxGeometry x="-0.2567" y="-8" relative="1" as="geometry">
            <mxPoint x="-44" y="-32" as="offset" />
          </mxGeometry>
        </mxCell>
        <mxCell id="YV2pxjx_i_R8zEDFhrPz-2" value="ReceivePending" style="rounded=1;whiteSpace=wrap;html=1;" parent="1" vertex="1">
          <mxGeometry x="466" y="304.9999999999999" width="120" height="60" as="geometry" />
        </mxCell>
        <mxCell id="YV2pxjx_i_R8zEDFhrPz-46" style="edgeStyle=orthogonalEdgeStyle;rounded=0;orthogonalLoop=1;jettySize=auto;html=1;entryX=1;entryY=0.5;entryDx=0;entryDy=0;curved=1;exitX=0.5;exitY=1;exitDx=0;exitDy=0;" parent="1" source="YV2pxjx_i_R8zEDFhrPz-3" target="YV2pxjx_i_R8zEDFhrPz-10" edge="1">
          <mxGeometry relative="1" as="geometry" />
        </mxCell>
        <mxCell id="YV2pxjx_i_R8zEDFhrPz-52" value="Packet to send" style="edgeLabel;html=1;align=center;verticalAlign=middle;resizable=0;points=[];" parent="YV2pxjx_i_R8zEDFhrPz-46" vertex="1" connectable="0">
          <mxGeometry x="0.2714" y="-21" relative="1" as="geometry">
            <mxPoint x="43" y="-4" as="offset" />
          </mxGeometry>
        </mxCell>
        <mxCell id="MUKrDJCUJMBRWuc6zDxV-15" style="edgeStyle=orthogonalEdgeStyle;rounded=0;orthogonalLoop=1;jettySize=auto;html=1;exitX=1;exitY=0.25;exitDx=0;exitDy=0;endArrow=none;endFill=0;startArrow=classic;startFill=1;entryX=0;entryY=0.25;entryDx=0;entryDy=0;" edge="1" parent="1" source="YV2pxjx_i_R8zEDFhrPz-3" target="MUKrDJCUJMBRWuc6zDxV-21">
          <mxGeometry relative="1" as="geometry">
            <mxPoint x="1360" y="320" as="targetPoint" />
          </mxGeometry>
        </mxCell>
        <mxCell id="MUKrDJCUJMBRWuc6zDxV-17" value="Packet to send waiting for response" style="edgeLabel;html=1;align=center;verticalAlign=middle;resizable=0;points=[];" vertex="1" connectable="0" parent="MUKrDJCUJMBRWuc6zDxV-15">
          <mxGeometry x="-0.1181" relative="1" as="geometry">
            <mxPoint x="16" y="-15" as="offset" />
          </mxGeometry>
        </mxCell>
        <mxCell id="MUKrDJCUJMBRWuc6zDxV-16" style="edgeStyle=orthogonalEdgeStyle;rounded=0;orthogonalLoop=1;jettySize=auto;html=1;exitX=1;exitY=0.75;exitDx=0;exitDy=0;entryX=0;entryY=0.75;entryDx=0;entryDy=0;" edge="1" parent="1" source="YV2pxjx_i_R8zEDFhrPz-3" target="MUKrDJCUJMBRWuc6zDxV-21">
          <mxGeometry relative="1" as="geometry">
            <mxPoint x="1360" y="350" as="targetPoint" />
          </mxGeometry>
        </mxCell>
        <mxCell id="MUKrDJCUJMBRWuc6zDxV-18" value="Response to packet" style="edgeLabel;html=1;align=center;verticalAlign=middle;resizable=0;points=[];" vertex="1" connectable="0" parent="MUKrDJCUJMBRWuc6zDxV-16">
          <mxGeometry x="0.1323" y="4" relative="1" as="geometry">
            <mxPoint y="14" as="offset" />
          </mxGeometry>
        </mxCell>
        <mxCell id="YV2pxjx_i_R8zEDFhrPz-3" value="SendPacket" style="rounded=1;whiteSpace=wrap;html=1;" parent="1" vertex="1">
          <mxGeometry x="1050" y="305" width="120" height="60" as="geometry" />
        </mxCell>
        <mxCell id="YV2pxjx_i_R8zEDFhrPz-45" style="edgeStyle=orthogonalEdgeStyle;rounded=0;orthogonalLoop=1;jettySize=auto;html=1;entryX=0.75;entryY=1;entryDx=0;entryDy=0;curved=1;" parent="1" source="YV2pxjx_i_R8zEDFhrPz-10" target="YV2pxjx_i_R8zEDFhrPz-2" edge="1">
          <mxGeometry relative="1" as="geometry" />
        </mxCell>
        <mxCell id="YV2pxjx_i_R8zEDFhrPz-53" value="Packet received" style="edgeLabel;html=1;align=center;verticalAlign=middle;resizable=0;points=[];" parent="YV2pxjx_i_R8zEDFhrPz-45" vertex="1" connectable="0">
          <mxGeometry x="0.141" y="-20" relative="1" as="geometry">
            <mxPoint x="40" y="-36" as="offset" />
          </mxGeometry>
        </mxCell>
        <mxCell id="YV2pxjx_i_R8zEDFhrPz-10" value="Socket" style="rounded=0;whiteSpace=wrap;html=1;" parent="1" vertex="1">
          <mxGeometry x="795" y="540" width="70" height="30" as="geometry" />
        </mxCell>
        <mxCell id="MUKrDJCUJMBRWuc6zDxV-11" style="edgeStyle=orthogonalEdgeStyle;rounded=0;orthogonalLoop=1;jettySize=auto;html=1;curved=1;entryX=0.5;entryY=1;entryDx=0;entryDy=0;" edge="1" parent="1" source="YV2pxjx_i_R8zEDFhrPz-12" target="YV2pxjx_i_R8zEDFhrPz-10">
          <mxGeometry relative="1" as="geometry">
            <mxPoint x="390" y="700" as="targetPoint" />
            <Array as="points">
              <mxPoint x="350" y="650" />
              <mxPoint x="830" y="650" />
            </Array>
          </mxGeometry>
        </mxCell>
        <mxCell id="MUKrDJCUJMBRWuc6zDxV-12" value="Response to request" style="edgeLabel;html=1;align=center;verticalAlign=middle;resizable=0;points=[];" vertex="1" connectable="0" parent="MUKrDJCUJMBRWuc6zDxV-11">
          <mxGeometry x="-0.4615" y="12" relative="1" as="geometry">
            <mxPoint x="144" y="22" as="offset" />
          </mxGeometry>
        </mxCell>
        <mxCell id="YV2pxjx_i_R8zEDFhrPz-12" value="HandleReceive" style="rounded=1;whiteSpace=wrap;html=1;" parent="1" vertex="1">
          <mxGeometry x="290" y="509.9999999999999" width="120" height="60" as="geometry" />
        </mxCell>
        <mxCell id="YV2pxjx_i_R8zEDFhrPz-57" value="" style="endArrow=classic;dashed=1;html=1;dashPattern=1 3;strokeWidth=2;rounded=0;startArrow=none;startFill=0;endFill=1;" parent="1" edge="1">
          <mxGeometry width="50" height="50" relative="1" as="geometry">
            <mxPoint x="980.5" y="72.5" as="sourcePoint" />
            <mxPoint x="1060.5" y="72.5" as="targetPoint" />
          </mxGeometry>
        </mxCell>
        <mxCell id="YV2pxjx_i_R8zEDFhrPz-59" value="&lt;font style=&quot;font-size: 20px;&quot;&gt;&lt;b&gt;&lt;u&gt;Caption&lt;/u&gt;&lt;/b&gt;&lt;/font&gt;" style="text;html=1;align=center;verticalAlign=middle;resizable=0;points=[];autosize=1;strokeColor=none;fillColor=none;" parent="1" vertex="1">
          <mxGeometry x="1040.5" width="100" height="40" as="geometry" />
        </mxCell>
        <mxCell id="YV2pxjx_i_R8zEDFhrPz-61" value="Works in a thread&lt;br&gt;Arrow points the thread launcher" style="text;html=1;align=center;verticalAlign=middle;resizable=0;points=[];autosize=1;strokeColor=none;fillColor=none;" parent="1" vertex="1">
          <mxGeometry x="1060.5" y="52.5" width="200" height="40" as="geometry" />
        </mxCell>
        <mxCell id="YV2pxjx_i_R8zEDFhrPz-62" value="" style="strokeWidth=2;html=1;shape=mxgraph.flowchart.direct_data;whiteSpace=wrap;" parent="1" vertex="1">
          <mxGeometry x="980" y="102.5" width="80" height="20" as="geometry" />
        </mxCell>
        <mxCell id="YV2pxjx_i_R8zEDFhrPz-63" value="Unix pipe / Golang channel" style="text;html=1;align=center;verticalAlign=middle;resizable=0;points=[];autosize=1;strokeColor=none;fillColor=none;" parent="1" vertex="1">
          <mxGeometry x="1075.5" y="97.5" width="170" height="30" as="geometry" />
        </mxCell>
        <mxCell id="YV2pxjx_i_R8zEDFhrPz-64" value="" style="endArrow=classic;html=1;rounded=0;" parent="1" edge="1">
          <mxGeometry width="50" height="50" relative="1" as="geometry">
            <mxPoint x="980" y="152.5" as="sourcePoint" />
            <mxPoint x="1060" y="152.5" as="targetPoint" />
          </mxGeometry>
        </mxCell>
        <mxCell id="YV2pxjx_i_R8zEDFhrPz-65" value="Argument passed &lt;br&gt;to arrow destination" style="text;html=1;align=center;verticalAlign=middle;resizable=0;points=[];autosize=1;strokeColor=none;fillColor=none;" parent="1" vertex="1">
          <mxGeometry x="1089.5" y="132.5" width="130" height="40" as="geometry" />
        </mxCell>
        <mxCell id="YV2pxjx_i_R8zEDFhrPz-66" value="" style="rounded=1;whiteSpace=wrap;html=1;" parent="1" vertex="1">
          <mxGeometry x="980" y="182.5" width="80.5" height="20" as="geometry" />
        </mxCell>
        <mxCell id="YV2pxjx_i_R8zEDFhrPz-67" value="Function" style="text;html=1;align=center;verticalAlign=middle;resizable=0;points=[];autosize=1;strokeColor=none;fillColor=none;" parent="1" vertex="1">
          <mxGeometry x="1125.5" y="177.5" width="70" height="30" as="geometry" />
        </mxCell>
        <mxCell id="YV2pxjx_i_R8zEDFhrPz-68" value="" style="rounded=0;whiteSpace=wrap;html=1;" parent="1" vertex="1">
          <mxGeometry x="980" y="222.5" width="80.5" height="20" as="geometry" />
        </mxCell>
        <mxCell id="YV2pxjx_i_R8zEDFhrPz-69" value="Structure / Object" style="text;html=1;align=center;verticalAlign=middle;resizable=0;points=[];autosize=1;strokeColor=none;fillColor=none;" parent="1" vertex="1">
          <mxGeometry x="1094.5" y="217.5" width="120" height="30" as="geometry" />
        </mxCell>
        <mxCell id="MUKrDJCUJMBRWuc6zDxV-3" style="edgeStyle=orthogonalEdgeStyle;rounded=0;orthogonalLoop=1;jettySize=auto;html=1;entryX=0;entryY=0.5;entryDx=0;entryDy=0;" edge="1" parent="1" source="MUKrDJCUJMBRWuc6zDxV-1" target="YV2pxjx_i_R8zEDFhrPz-3">
          <mxGeometry relative="1" as="geometry" />
        </mxCell>
        <mxCell id="MUKrDJCUJMBRWuc6zDxV-13" value="Packet received&lt;br style=&quot;border-color: var(--border-color);&quot;&gt;if response" style="edgeLabel;html=1;align=center;verticalAlign=middle;resizable=0;points=[];" vertex="1" connectable="0" parent="MUKrDJCUJMBRWuc6zDxV-3">
          <mxGeometry x="-0.3893" y="1" relative="1" as="geometry">
            <mxPoint x="17" y="-16" as="offset" />
          </mxGeometry>
        </mxCell>
        <mxCell id="MUKrDJCUJMBRWuc6zDxV-1" value="&lt;div style=&quot;&quot;&gt;&lt;pre style=&quot;&quot;&gt;&lt;font style=&quot;background-color: rgb(255, 255, 255);&quot; face=&quot;Helvetica&quot;&gt;PacketReceiver&lt;/font&gt;&lt;/pre&gt;&lt;/div&gt;" style="strokeWidth=2;html=1;shape=mxgraph.flowchart.direct_data;whiteSpace=wrap;" vertex="1" parent="1">
          <mxGeometry x="735" y="317.5" width="190" height="35" as="geometry" />
        </mxCell>
        <mxCell id="MUKrDJCUJMBRWuc6zDxV-2" style="edgeStyle=orthogonalEdgeStyle;rounded=0;orthogonalLoop=1;jettySize=auto;html=1;entryX=0;entryY=0.5;entryDx=0;entryDy=0;entryPerimeter=0;" edge="1" parent="1" source="YV2pxjx_i_R8zEDFhrPz-2" target="MUKrDJCUJMBRWuc6zDxV-1">
          <mxGeometry relative="1" as="geometry" />
        </mxCell>
        <mxCell id="MUKrDJCUJMBRWuc6zDxV-5" value="Packet received&lt;br&gt;if response" style="edgeLabel;html=1;align=center;verticalAlign=middle;resizable=0;points=[];" vertex="1" connectable="0" parent="MUKrDJCUJMBRWuc6zDxV-2">
          <mxGeometry x="-0.1446" y="2" relative="1" as="geometry">
            <mxPoint y="-15" as="offset" />
          </mxGeometry>
        </mxCell>
        <mxCell id="MUKrDJCUJMBRWuc6zDxV-21" value="..." style="rounded=1;whiteSpace=wrap;html=1;fillColor=#dae8fc;strokeColor=#6c8ebf;" vertex="1" parent="1">
          <mxGeometry x="1370" y="305" width="120" height="60" as="geometry" />
        </mxCell>
      </root>
    </mxGraphModel>
  </diagram>
</mxfile>
